<?xml version="1.0" encoding="UTF-8"?>
<svg xmlns="http://www.w3.org/2000/svg" viewBox="0 0 3200 800" role="img" aria-labelledby="title desc">
  <title id="title">Pi LABS — Commons Research Foundation (Upright Symbol + Clean Text)</title>
  <desc id="desc">Original symbol flipped correctly upright; only text is live and crisp.</desc>
  <defs>
    <clipPath id="markClip">
      <rect x="0" y="0" width="500" height="520" />
    </clipPath>
    <style>
      .brand { fill: #0C1B2A; }
      .word { font: 800 340px/1 'Poppins','Nunito','Avenir Next','Segoe UI',Roboto,system-ui,-apple-system,Arial,sans-serif; letter-spacing: .045em; }
      .tag  { font: 600 84px/1 'Poppins','Nunito','Avenir Next','Segoe UI',Roboto,system-ui,-apple-system,Arial,sans-serif; letter-spacing: .32em; text-transform: uppercase; }
    </style>
  </defs>

  <!-- Upright symbol: flip vertically then shift back into view -->
  <g clip-path="url(#markClip)" transform="translate(0,520) scale(1,-1) translate(0,26)">

<title>Pi LABS — Commons Research Foundation (Auto-traced SVG)</title>
<desc>Auto-traced from PNG to create a scalable vector. Colors: brand navy and light gray accent.</desc>
<path d="M 240.0 427.5 L 232.0 428.5 L 227.5 435.0 L 229.5 444.0 L 235.0 447.5 L 242.0 446.5 L 246.5 442.0 L 246.5 433.0 L 240.0 427.5 Z" fill="#0C1B2A" />
<path d="M 185.0 426.5 L 183.0 433.5 L 203.5 438.0 L 203.0 431.5 L 185.0 426.5 Z" fill="#0C1B2A" />
<path d="M 289.0 427.5 L 270.0 431.5 L 270.5 438.0 L 291.0 434.5 L 289.0 427.5 Z" fill="#0C1B2A" />
<path d="M 157.0 415.5 L 154.0 422.5 L 171.0 430.5 L 172.5 429.0 L 174.0 423.5 L 157.0 415.5 Z" fill="#0C1B2A" />
<path d="M 317.0 416.5 L 300.0 423.5 L 301.5 429.0 L 303.0 430.5 L 319.0 423.5 L 320.5 422.0 L 317.0 416.5 Z" fill="#0C1B2A" />
<path d="M 342.0 401.5 L 327.5 411.0 L 331.0 417.5 L 345.5 408.0 L 342.0 401.5 Z" fill="#0C1B2A" />
<path d="M 132.0 400.5 L 127.5 406.0 L 144.0 416.5 L 146.5 411.0 L 132.0 400.5 Z" fill="#0C1B2A" />
<path d="M 249.0 61.5 L 207.0 63.5 L 171.0 74.5 L 144.5 89.0 L 155.5 105.0 L 144.0 113.5 L 131.0 99.5 L 123.0 105.5 L 101.5 129.0 L 89.5 148.0 L 92.0 151.5 L 120.5 168.0 L 109.5 196.0 L 106.5 215.0 L 89.5 215.0 L 93.5 193.0 L 100.5 175.0 L 82.0 164.5 L 73.5 186.0 L 67.5 219.0 L 68.0 227.5 L 88.5 229.0 L 87.0 244.5 L 67.5 245.0 L 68.5 261.0 L 79.5 302.0 L 91.5 326.0 L 104.5 345.0 L 106.0 346.5 L 122.0 334.5 L 132.5 347.0 L 117.5 359.0 L 140.0 379.5 L 160.0 392.5 L 180.0 401.5 L 200.0 407.5 L 227.0 411.5 L 229.5 411.0 L 229.0 388.5 L 208.0 386.5 L 182.0 378.5 L 156.0 364.5 L 134.5 347.0 L 146.0 334.5 L 159.0 346.5 L 180.0 359.5 L 204.0 368.5 L 229.5 372.0 L 229.0 348.5 L 200.0 342.5 L 174.0 328.5 L 152.5 308.0 L 135.5 279.0 L 128.5 254.0 L 127.5 225.0 L 134.5 194.0 L 144.5 175.0 L 126.5 162.0 L 138.5 146.0 L 125.5 132.0 L 136.0 120.5 L 139.0 118.5 L 151.0 133.5 L 169.0 120.5 L 179.0 138.5 L 206.0 126.5 L 229.0 122.5 L 229.0 99.5 L 199.0 104.5 L 177.0 113.5 L 169.5 99.0 L 201.0 86.5 L 227.0 82.5 L 245.0 82.5 L 246.5 122.0 L 278.0 129.5 L 303.0 143.5 L 327.5 168.0 L 341.5 194.0 L 347.5 216.0 L 348.5 246.0 L 342.5 274.0 L 329.5 300.0 L 345.5 312.0 L 323.0 336.5 L 308.0 347.5 L 297.0 331.5 L 278.0 341.5 L 247.0 348.5 L 246.5 372.0 L 262.0 369.5 L 267.5 385.0 L 246.5 389.0 L 247.0 410.5 L 268.0 408.5 L 295.0 400.5 L 288.5 382.0 L 319.0 365.5 L 342.0 345.5 L 356.0 360.5 L 369.5 347.0 L 385.5 324.0 L 397.5 298.0 L 402.5 281.0 L 401.0 276.5 L 367.5 268.0 L 371.5 245.0 L 369.5 209.0 L 362.5 185.0 L 347.5 157.0 L 332.0 138.5 L 310.0 120.5 L 287.0 108.5 L 266.0 102.5 L 264.5 86.0 L 276.0 87.5 L 298.0 95.5 L 321.0 108.5 L 333.0 118.5 L 347.5 104.0 L 329.0 89.5 L 304.0 75.5 L 282.0 67.5 L 249.0 61.5 Z" fill="#0C1B2A" />
<path d="M 117.0 387.5 L 110.5 391.0 L 110.5 396.0 L 114.0 398.5 L 118.0 398.5 L 121.5 395.0 L 120.5 390.0 L 117.0 387.5 Z" fill="#0C1B2A" />
<path d="M 359.0 388.5 L 352.5 391.0 L 351.5 395.0 L 354.0 398.5 L 360.0 398.5 L 362.5 396.0 L 362.5 391.0 L 359.0 388.5 Z" fill="#0C1B2A" />
<path d="M 98.0 364.5 L 91.0 364.5 L 85.5 370.0 L 85.5 378.0 L 91.0 383.5 L 99.0 383.5 L 103.5 379.0 L 103.5 369.0 L 98.0 364.5 Z" fill="#0C1B2A" />
<path d="M 382.0 364.5 L 375.0 364.5 L 369.5 370.0 L 369.5 378.0 L 375.0 383.5 L 383.0 383.5 L 387.5 379.0 L 387.5 369.0 L 382.0 364.5 Z" fill="#0C1B2A" />
<path d="M 71.0 332.5 L 64.5 337.0 L 76.0 356.5 L 81.5 351.0 L 71.0 332.5 Z" fill="#0C1B2A" />
<path d="M 406.0 332.5 L 402.5 334.0 L 391.5 352.0 L 397.0 356.5 L 410.5 336.0 L 406.0 332.5 Z" fill="#0C1B2A" />
<path d="M 241.0 314.5 L 234.0 314.5 L 229.5 319.0 L 229.5 327.0 L 234.0 331.5 L 241.0 331.5 L 245.5 327.0 L 245.5 319.0 L 241.0 314.5 Z" fill="#0C1B2A" />
<path d="M 617.0 307.5 L 610.0 308.5 L 605.5 314.0 L 605.5 320.0 L 610.0 325.5 L 621.0 325.5 L 625.5 320.0 L 624.5 312.0 L 617.0 307.5 Z" fill="#0C1B2A" />
<path d="M 58.0 303.5 L 51.5 306.0 L 58.5 324.0 L 61.0 324.5 L 65.5 320.0 L 58.0 303.5 Z" fill="#0C1B2A" />
<path d="M 418.0 303.5 L 415.5 305.0 L 409.5 321.0 L 415.0 324.5 L 422.5 309.0 L 422.5 306.0 L 418.0 303.5 Z" fill="#0C1B2A" />
<path d="M 104.5 245.0 L 109.5 274.0 L 115.5 291.0 L 126.5 311.0 L 114.0 321.5 L 97.5 290.0 L 88.5 253.0 L 89.0 244.5 L 104.5 245.0 Z" fill="#0C1B2A" />
<path d="M 773.0 230.5 L 730.0 230.5 L 725.5 235.0 L 725.5 314.0 L 731.0 319.5 L 740.0 318.5 L 743.5 313.0 L 743.5 247.0 L 774.0 246.5 L 778.5 242.0 L 778.5 235.0 L 773.0 230.5 Z" fill="#0C1B2A" />
<path d="M 883.0 229.5 L 877.0 229.5 L 872.5 233.0 L 866.0 247.5 L 836.0 247.5 L 828.0 230.5 L 819.0 229.5 L 814.5 234.0 L 816.5 247.0 L 842.5 312.0 L 849.0 319.5 L 858.5 316.0 L 887.5 243.0 L 888.5 236.0 L 883.0 229.5 Z" fill="#0C1B2A" />
<path d="M 1051.0 228.5 L 1038.0 230.5 L 1027.0 235.5 L 1022.5 241.0 L 1022.5 248.0 L 1028.0 252.5 L 1033.0 252.5 L 1046.0 245.5 L 1056.0 245.5 L 1062.5 251.0 L 1062.5 258.0 L 1059.0 262.5 L 1032.0 273.5 L 1023.5 285.0 L 1022.5 298.0 L 1027.5 309.0 L 1035.0 315.5 L 1046.0 319.5 L 1059.0 319.5 L 1073.0 314.5 L 1078.5 307.0 L 1077.5 301.0 L 1074.0 297.5 L 1067.0 297.5 L 1061.0 301.5 L 1050.0 303.5 L 1041.5 298.0 L 1040.5 293.0 L 1046.0 286.5 L 1068.0 278.5 L 1075.5 273.0 L 1081.5 261.0 L 1081.5 252.0 L 1077.5 242.0 L 1072.0 235.5 L 1060.0 229.5 L 1051.0 228.5 Z" fill="#0C1B2A" />
<path d="M 518.0 229.5 L 512.0 229.5 L 506.5 234.0 L 506.5 315.0 L 511.0 318.5 L 546.0 318.5 L 552.0 316.5 L 566.5 303.0 L 569.5 294.0 L 568.5 280.0 L 562.5 269.0 L 549.0 259.5 L 540.0 257.5 L 525.0 258.5 L 523.5 235.0 L 518.0 229.5 Z" fill="#0C1B2A" />
<path d="M 967.0 230.5 L 931.0 230.5 L 926.5 235.0 L 926.5 313.0 L 931.0 318.5 L 965.0 318.5 L 974.0 314.5 L 983.5 302.0 L 983.5 287.0 L 976.5 276.0 L 984.5 270.0 L 987.5 264.0 L 988.5 251.0 L 982.0 238.5 L 967.0 230.5 Z" fill="#0C1B2A" />
<path d="M 359.5 293.0 L 373.5 300.0 L 364.0 316.5 L 351.5 308.0 L 359.5 293.0 Z" fill="#0C1B2A" />
<path d="M 175.0 160.5 L 156.5 181.0 L 184.0 190.5 L 195.5 204.0 L 197.5 211.0 L 197.5 274.0 L 190.0 274.5 L 182.0 271.5 L 169.0 259.5 L 150.5 278.0 L 172.0 295.5 L 186.0 300.5 L 292.0 300.5 L 303.0 307.5 L 319.5 290.0 L 297.0 275.5 L 274.5 274.0 L 274.5 202.0 L 280.0 193.5 L 292.0 191.5 L 306.0 202.5 L 321.5 187.0 L 317.5 181.0 L 305.0 169.5 L 293.0 164.5 L 277.0 164.5 L 266.0 169.5 L 255.5 180.0 L 249.5 194.0 L 248.5 274.0 L 224.0 274.5 L 222.5 203.0 L 219.5 192.0 L 210.5 178.0 L 202.0 170.5 L 175.0 160.5 Z" fill="#0C1B2A" />
<path d="M 956.5 282.0 L 962.0 283.5 L 966.5 288.0 L 966.5 297.0 L 958.0 303.5 L 946.0 303.5 L 943.5 301.0 L 943.5 283.0 L 956.5 282.0 Z" fill="#0C1B2A" />
<path d="M 541.5 275.0 L 550.5 283.0 L 550.5 295.0 L 542.0 302.5 L 524.0 302.5 L 523.5 275.0 L 541.5 275.0 Z" fill="#0C1B2A" />
<path d="M 49.0 265.5 L 42.5 268.0 L 47.5 293.0 L 50.0 294.5 L 55.5 292.0 L 49.0 265.5 Z" fill="#0C1B2A" />
<path d="M 428.0 265.5 L 424.5 266.0 L 420.5 290.0 L 421.0 292.5 L 426.0 294.5 L 428.5 291.0 L 432.5 269.0 L 432.0 266.5 L 428.0 265.5 Z" fill="#0C1B2A" />
<path d="M 619.0 229.5 L 612.0 229.5 L 607.5 234.0 L 607.5 290.0 L 612.0 294.5 L 621.0 293.5 L 624.5 288.0 L 624.5 235.0 L 619.0 229.5 Z" fill="#0C1B2A" />
<path d="M 860.5 264.0 L 851.0 285.5 L 842.5 264.0 L 860.5 264.0 Z" fill="#0C1B2A" />
<path d="M 962.5 246.0 L 970.5 252.0 L 971.5 257.0 L 968.5 263.0 L 962.0 266.5 L 945.0 266.5 L 943.5 247.0 L 962.5 246.0 Z" fill="#0C1B2A" />
<path d="M 360.0 115.5 L 345.5 129.0 L 368.5 160.0 L 382.5 194.0 L 387.5 221.0 L 386.5 256.0 L 405.0 260.5 L 407.5 249.0 L 407.5 219.0 L 400.5 184.0 L 383.5 146.0 L 360.0 115.5 Z" fill="#0C1B2A" />
<path d="M 433.0 224.5 L 426.0 225.5 L 421.5 230.0 L 421.5 240.0 L 430.0 245.5 L 435.0 244.5 L 440.5 237.0 L 438.5 228.0 L 433.0 224.5 Z" fill="#0C1B2A" />
<path d="M 47.0 224.5 L 39.0 225.5 L 34.5 231.0 L 34.5 238.0 L 40.0 244.5 L 48.0 244.5 L 53.5 239.0 L 53.5 231.0 L 47.0 224.5 Z" fill="#0C1B2A" />
<path d="M 160.0 221.5 L 152.0 223.5 L 147.5 230.0 L 148.5 238.0 L 155.0 243.5 L 163.0 242.5 L 168.5 236.0 L 167.5 227.0 L 160.0 221.5 Z" fill="#0C1B2A" />
<path d="M 317.0 221.5 L 311.0 223.5 L 306.5 231.0 L 307.5 237.0 L 314.0 242.5 L 322.0 241.5 L 326.5 236.0 L 325.5 227.0 L 317.0 221.5 Z" fill="#0C1B2A" />
<path d="M 427.0 183.5 L 420.5 186.0 L 426.0 207.5 L 432.5 205.0 L 427.0 183.5 Z" fill="#0C1B2A" />
<path d="M 50.0 183.5 L 46.5 186.0 L 42.5 202.0 L 43.0 204.5 L 49.0 206.5 L 54.5 187.0 L 50.0 183.5 Z" fill="#0C1B2A" />
<path d="M 969.0 173.5 L 958.0 184.5 L 957.5 175.0 L 954.5 174.0 L 955.0 191.5 L 966.0 180.5 L 966.5 190.0 L 969.5 190.0 L 969.0 173.5 Z" fill="#0C1B2A" />
<path d="M 514.0 173.5 L 508.0 174.5 L 503.5 180.0 L 504.5 187.0 L 509.0 190.5 L 516.0 190.5 L 518.5 188.0 L 517.0 186.5 L 511.0 188.5 L 506.5 185.0 L 506.5 180.0 L 510.0 176.5 L 518.5 176.0 L 514.0 173.5 Z" fill="#0C1B2A" />
<path d="M 535.0 173.5 L 529.0 174.5 L 525.5 179.0 L 525.5 186.0 L 530.0 190.5 L 537.0 190.5 L 542.5 184.0 L 540.5 177.0 L 535.0 173.5 Z" fill="#0C1B2A" />
<path d="M 569.0 173.5 L 566.5 174.0 L 565.0 183.5 L 559.0 173.5 L 554.0 183.5 L 552.5 175.0 L 549.5 174.0 L 553.0 190.5 L 559.0 179.5 L 566.5 190.0 L 569.0 173.5 Z" fill="#0C1B2A" />
<path d="M 596.0 173.5 L 593.5 175.0 L 592.0 183.5 L 587.0 173.5 L 582.0 182.5 L 579.5 175.0 L 576.5 174.0 L 581.0 190.5 L 586.0 179.5 L 593.5 190.0 L 596.0 173.5 Z" fill="#0C1B2A" />
<path d="M 614.0 173.5 L 609.0 174.5 L 604.5 180.0 L 605.5 187.0 L 610.0 190.5 L 616.0 190.5 L 621.5 185.0 L 620.5 178.0 L 614.0 173.5 Z" fill="#0C1B2A" />
<path d="M 645.0 173.5 L 634.0 184.5 L 633.5 175.0 L 630.5 174.0 L 631.0 190.5 L 642.0 180.5 L 642.5 190.0 L 645.5 190.0 L 645.0 173.5 Z" fill="#0C1B2A" />
<path d="M 662.0 173.5 L 655.5 176.0 L 663.5 177.0 L 662.0 180.5 L 655.5 184.0 L 658.0 190.5 L 665.5 189.0 L 657.5 187.0 L 666.5 178.0 L 662.0 173.5 Z" fill="#0C1B2A" />
<path d="M 719.0 173.5 L 713.0 180.5 L 709.5 180.0 L 709.5 174.0 L 707.5 174.0 L 708.0 190.5 L 716.0 190.5 L 719.5 188.0 L 719.5 183.0 L 716.5 181.0 L 719.0 173.5 Z" fill="#0C1B2A" />
<path d="M 729.0 173.5 L 728.5 190.0 L 739.0 190.5 L 739.0 188.5 L 731.5 188.0 L 732.0 183.5 L 738.5 183.0 L 732.0 181.5 L 731.5 177.0 L 739.5 175.0 L 729.0 173.5 Z" fill="#0C1B2A" />
<path d="M 754.0 173.5 L 747.5 176.0 L 755.5 177.0 L 747.5 185.0 L 750.0 190.5 L 757.5 189.0 L 750.5 188.0 L 750.5 185.0 L 758.5 179.0 L 754.0 173.5 Z" fill="#0C1B2A" />
<path d="M 777.0 173.5 L 767.5 174.0 L 768.0 190.5 L 777.5 190.0 L 769.5 188.0 L 770.0 183.5 L 776.5 183.0 L 771.0 181.5 L 769.5 177.0 L 777.0 176.5 L 777.0 173.5 Z" fill="#0C1B2A" />
<path d="M 799.0 173.5 L 792.0 177.5 L 784.5 174.0 L 792.0 190.5 L 799.0 173.5 Z" fill="#0C1B2A" />
<path d="M 817.0 173.5 L 813.0 180.5 L 809.5 180.0 L 809.0 173.5 L 806.5 175.0 L 807.0 190.5 L 816.0 190.5 L 819.5 187.0 L 815.5 180.0 L 818.5 176.0 L 817.0 173.5 Z" fill="#0C1B2A" />
<path d="M 837.0 173.5 L 831.0 174.5 L 826.5 181.0 L 828.5 188.0 L 832.0 190.5 L 839.0 190.5 L 841.5 188.0 L 840.0 186.5 L 834.0 188.5 L 829.5 184.0 L 829.5 180.0 L 833.0 176.5 L 841.5 176.0 L 837.0 173.5 Z" fill="#0C1B2A" />
<path d="M 863.0 173.5 L 861.0 181.5 L 853.0 181.5 L 852.5 175.0 L 849.5 175.0 L 850.0 190.5 L 852.5 190.0 L 853.0 183.5 L 861.0 183.5 L 861.5 190.0 L 864.5 190.0 L 863.0 173.5 Z" fill="#0C1B2A" />
<path d="M 889.0 173.5 L 887.5 190.0 L 898.0 190.5 L 898.0 188.5 L 890.5 188.0 L 890.5 183.0 L 896.5 181.0 L 891.0 180.5 L 889.0 173.5 Z" fill="#0C1B2A" />
<path d="M 914.0 173.5 L 905.5 179.0 L 905.5 185.0 L 911.0 190.5 L 917.0 190.5 L 922.5 185.0 L 921.5 178.0 L 914.0 173.5 Z" fill="#0C1B2A" />
<path d="M 939.0 173.5 L 931.5 178.0 L 932.0 190.5 L 934.5 190.0 L 933.5 180.0 L 936.0 176.5 L 941.5 178.0 L 942.5 190.0 L 944.5 190.0 L 944.5 178.0 L 939.0 173.5 Z" fill="#0C1B2A" />
<path d="M 984.0 173.5 L 979.5 175.0 L 979.5 190.0 L 989.0 190.5 L 993.5 187.0 L 994.5 181.0 L 991.0 175.5 L 984.0 173.5 Z" fill="#0C1B2A" />
<path d="M 1015.0 173.5 L 1011.0 177.5 L 1005.0 177.5 L 1002.0 173.5 L 999.5 174.0 L 1008.0 190.5 L 1015.0 173.5 Z" fill="#0C1B2A" />
<path d="M 1026.0 173.5 L 1024.5 188.0 L 1020.0 188.5 L 1020.0 190.5 L 1031.5 190.0 L 1026.5 188.0 L 1026.0 173.5 Z" fill="#0C1B2A" />
<path d="M 1040.0 173.5 L 1039.0 190.5 L 1041.5 190.0 L 1040.0 173.5 Z" fill="#0C1B2A" />
<path d="M 1060.0 173.5 L 1053.0 175.5 L 1050.5 179.0 L 1050.5 186.0 L 1056.0 190.5 L 1064.0 189.5 L 1067.5 184.0 L 1066.5 178.0 L 1060.0 173.5 Z" fill="#0C1B2A" />
<path d="M 1091.0 173.5 L 1080.0 184.5 L 1078.5 174.0 L 1076.5 174.0 L 1077.0 190.5 L 1088.0 180.5 L 1088.5 190.0 L 1090.5 190.0 L 1091.0 173.5 Z" fill="#0C1B2A" />
<path d="M 536.5 177.0 L 539.5 180.0 L 539.5 184.0 L 537.0 187.5 L 532.0 188.5 L 528.5 186.0 L 527.5 180.0 L 531.0 176.5 L 536.5 177.0 Z" fill="#0C1B2A" />
<path d="M 615.5 177.0 L 619.5 183.0 L 616.0 187.5 L 612.0 188.5 L 606.5 182.0 L 609.0 177.5 L 615.5 177.0 Z" fill="#0C1B2A" />
<path d="M 715.5 183.0 L 717.5 185.0 L 716.0 187.5 L 709.5 188.0 L 710.0 182.5 L 715.5 183.0 Z" fill="#0C1B2A" />
<path d="M 815.5 183.0 L 815.0 188.5 L 809.5 188.0 L 810.0 182.5 L 815.5 183.0 Z" fill="#0C1B2A" />
<path d="M 916.5 177.0 L 920.5 183.0 L 917.0 187.5 L 913.0 188.5 L 908.5 185.0 L 907.5 181.0 L 912.0 176.5 L 916.5 177.0 Z" fill="#0C1B2A" />
<path d="M 988.5 177.0 L 991.5 180.0 L 991.5 184.0 L 989.0 187.5 L 983.0 188.5 L 982.5 177.0 L 988.5 177.0 Z" fill="#0C1B2A" />
<path d="M 1061.5 177.0 L 1064.5 180.0 L 1064.5 185.0 L 1057.0 188.5 L 1053.5 186.0 L 1052.5 181.0 L 1056.0 176.5 L 1061.5 177.0 Z" fill="#0C1B2A" />
<path d="M 794.5 180.0 L 792.0 185.5 L 789.5 180.0 L 794.5 180.0 Z" fill="#0C1B2A" />
<path d="M 1010.5 180.0 L 1008.0 185.5 L 1005.5 180.0 L 1010.5 180.0 Z" fill="#0C1B2A" />
<path d="M 57.0 154.5 L 50.5 171.0 L 57.0 174.5 L 63.5 158.0 L 57.0 154.5 Z" fill="#0C1B2A" />
<path d="M 418.0 155.5 L 411.5 158.0 L 416.5 172.0 L 420.0 173.5 L 424.5 171.0 L 418.0 155.5 Z" fill="#0C1B2A" />
<path d="M 239.0 138.5 L 232.0 140.5 L 228.5 147.0 L 230.5 154.0 L 236.0 157.5 L 242.0 156.5 L 246.5 151.0 L 245.5 143.0 L 239.0 138.5 Z" fill="#0C1B2A" />
<path d="M 70.0 130.5 L 66.5 132.0 L 61.5 143.0 L 67.0 147.5 L 74.5 134.0 L 70.0 130.5 Z" fill="#0C1B2A" />
<path d="M 406.0 130.5 L 402.0 131.5 L 400.5 135.0 L 408.0 146.5 L 413.5 143.0 L 406.0 130.5 Z" fill="#0C1B2A" />
<path d="M 82.0 112.5 L 76.5 113.0 L 77.0 120.5 L 80.0 121.5 L 83.5 119.0 L 82.0 112.5 Z" fill="#0C1B2A" />
<path d="M 397.0 112.5 L 392.0 112.5 L 389.5 116.0 L 394.0 121.5 L 398.5 119.0 L 397.0 112.5 Z" fill="#0C1B2A" />
<path d="M 96.0 87.5 L 90.0 89.5 L 85.5 98.0 L 86.5 103.0 L 94.0 108.5 L 102.0 106.5 L 105.5 101.0 L 104.5 93.0 L 96.0 87.5 Z" fill="#0C1B2A" />
<path d="M 378.0 87.5 L 369.5 93.0 L 368.5 99.0 L 374.0 107.5 L 381.0 108.5 L 386.5 105.0 L 388.5 95.0 L 386.0 90.5 L 378.0 87.5 Z" fill="#0C1B2A" />
<path d="M 119.0 72.5 L 115.0 72.5 L 111.5 76.0 L 111.5 80.0 L 115.0 83.5 L 119.0 83.5 L 122.5 80.0 L 122.5 76.0 L 119.0 72.5 Z" fill="#0C1B2A" />
<path d="M 359.0 72.5 L 355.0 72.5 L 351.5 77.0 L 356.0 83.5 L 362.5 81.0 L 362.5 75.0 L 359.0 72.5 Z" fill="#0C1B2A" />
<path d="M 144.0 55.5 L 128.5 65.0 L 133.0 70.5 L 147.5 62.0 L 144.0 55.5 Z" fill="#0C1B2A" />
<path d="M 331.0 55.5 L 327.5 62.0 L 341.0 70.5 L 345.5 65.0 L 331.0 55.5 Z" fill="#0C1B2A" />
<path d="M 173.0 42.5 L 156.0 49.5 L 154.5 51.0 L 156.5 55.0 L 159.0 56.5 L 175.0 49.5 L 173.0 42.5 Z" fill="#0C1B2A" />
<path d="M 303.0 42.5 L 299.5 48.0 L 301.0 49.5 L 317.5 56.0 L 319.5 52.0 L 318.0 48.5 L 303.0 42.5 Z" fill="#0C1B2A" />
<path d="M 204.0 33.5 L 184.0 39.5 L 185.5 45.0 L 205.0 41.5 L 206.5 40.0 L 204.0 33.5 Z" fill="#0C1B2A" />
<path d="M 239.0 25.5 L 231.0 27.5 L 227.5 33.0 L 229.5 42.0 L 234.0 45.5 L 243.0 44.5 L 247.5 36.0 L 246.5 31.0 L 239.0 25.5 Z" fill="#0C1B2A" />
<path d="M 272.0 33.5 L 270.0 41.5 L 289.5 45.0 L 291.5 40.0 L 290.0 38.5 L 272.0 33.5 Z" fill="#0C1B2A" />
<path d="M 204.0 434.5 L 204.0 436.5 L 204.0 434.5 Z" fill="#B8BDC2" />
<path d="M 276.0 429.5 L 274.5 430.0 L 276.0 429.5 Z" fill="#B8BDC2" />
<path d="M 239.0 426.5 L 237.5 427.0 L 239.0 426.5 Z" fill="#B8BDC2" />
<path d="M 221.0 410.5 L 218.5 411.0 L 221.0 410.5 Z" fill="#B8BDC2" />
<path d="M 252.0 410.5 L 249.5 411.0 L 252.0 410.5 Z" fill="#B8BDC2" />
<path d="M 110.0 391.5 L 110.0 394.5 L 110.0 391.5 Z" fill="#B8BDC2" />
<path d="M 319.0 367.5 L 307.5 373.0 L 315.0 390.5 L 329.5 382.0 L 319.0 367.5 Z" fill="#B8BDC2" />
<path d="M 225.0 387.5 L 222.5 388.0 L 225.0 387.5 Z" fill="#B8BDC2" />
<path d="M 251.0 387.5 L 248.5 388.0 L 251.0 387.5 Z" fill="#B8BDC2" />
<path d="M 358.0 387.5 L 355.5 388.0 L 358.0 387.5 Z" fill="#B8BDC2" />
<path d="M 216.0 386.5 L 214.5 387.0 L 216.0 386.5 Z" fill="#B8BDC2" />
<path d="M 252.0 371.5 L 250.5 372.0 L 252.0 371.5 Z" fill="#B8BDC2" />
<path d="M 254.0 346.5 L 252.5 347.0 L 254.0 346.5 Z" fill="#B8BDC2" />
<path d="M 216.0 345.5 L 214.5 346.0 L 216.0 345.5 Z" fill="#B8BDC2" />
<path d="M 60.0 324.5 L 58.5 325.0 L 60.0 324.5 Z" fill="#B8BDC2" />
<path d="M 737.0 319.5 L 735.5 320.0 L 737.0 319.5 Z" fill="#B8BDC2" />
<path d="M 1051.0 319.5 L 1047.5 320.0 L 1051.0 319.5 Z" fill="#B8BDC2" />
<path d="M 1056.0 319.5 L 1052.5 320.0 L 1056.0 319.5 Z" fill="#B8BDC2" />
<path d="M 963.0 318.5 L 961.5 319.0 L 963.0 318.5 Z" fill="#B8BDC2" />
<path d="M 605.0 315.5 L 605.0 318.5 L 605.0 315.5 Z" fill="#B8BDC2" />
<path d="M 725.0 236.5 L 725.0 312.5 L 725.0 236.5 Z" fill="#B8BDC2" />
<path d="M 290.0 300.5 L 287.5 301.0 L 290.0 300.5 Z" fill="#B8BDC2" />
<path d="M 1022.0 291.5 L 1022.0 294.5 L 1022.0 291.5 Z" fill="#B8BDC2" />
<path d="M 551.0 289.5 L 551.0 291.5 L 551.0 289.5 Z" fill="#B8BDC2" />
<path d="M 46.0 286.5 L 46.0 288.5 L 46.0 286.5 Z" fill="#B8BDC2" />
<path d="M 551.0 286.5 L 551.0 288.5 L 551.0 286.5 Z" fill="#B8BDC2" />
<path d="M 403.0 278.5 L 403.0 280.5 L 403.0 278.5 Z" fill="#B8BDC2" />
<path d="M 423.0 276.5 L 423.0 278.5 L 423.0 276.5 Z" fill="#B8BDC2" />
<path d="M 196.0 273.5 L 194.5 274.0 L 196.0 273.5 Z" fill="#B8BDC2" />
<path d="M 229.0 273.5 L 223.5 274.0 L 229.0 273.5 Z" fill="#B8BDC2" />
<path d="M 247.0 273.5 L 230.5 274.0 L 247.0 273.5 Z" fill="#B8BDC2" />
<path d="M 290.0 273.5 L 286.5 274.0 L 290.0 273.5 Z" fill="#B8BDC2" />
<path d="M 424.0 269.5 L 424.0 271.5 L 424.0 269.5 Z" fill="#B8BDC2" />
<path d="M 45.0 265.5 L 43.5 266.0 L 45.0 265.5 Z" fill="#B8BDC2" />
<path d="M 432.0 265.5 L 430.5 266.0 L 432.0 265.5 Z" fill="#B8BDC2" />
<path d="M 106.0 257.5 L 106.0 259.5 L 106.0 257.5 Z" fill="#B8BDC2" />
<path d="M 90.0 256.5 L 90.0 258.5 L 90.0 256.5 Z" fill="#B8BDC2" />
<path d="M 545.0 257.5 L 543.5 258.0 L 545.0 257.5 Z" fill="#B8BDC2" />
<path d="M 386.0 251.5 L 386.0 253.5 L 386.0 251.5 Z" fill="#B8BDC2" />
<path d="M 1031.0 252.5 L 1028.5 253.0 L 1031.0 252.5 Z" fill="#B8BDC2" />
<path d="M 371.0 249.5 L 371.0 251.5 L 371.0 249.5 Z" fill="#B8BDC2" />
<path d="M 67.0 246.5 L 67.0 248.5 L 67.0 246.5 Z" fill="#B8BDC2" />
<path d="M 960.0 245.5 L 944.5 246.0 L 960.0 245.5 Z" fill="#B8BDC2" />
<path d="M 387.0 240.5 L 387.0 244.5 L 387.0 240.5 Z" fill="#B8BDC2" />
<path d="M 408.0 239.5 L 408.0 244.5 L 408.0 239.5 Z" fill="#B8BDC2" />
<path d="M 128.0 228.5 L 128.0 241.5 L 128.0 228.5 Z" fill="#B8BDC2" />
<path d="M 348.0 237.5 L 348.0 241.5 L 348.0 237.5 Z" fill="#B8BDC2" />
<path d="M 34.0 235.5 L 34.0 237.5 L 34.0 235.5 Z" fill="#B8BDC2" />
<path d="M 372.0 230.5 L 372.0 237.5 L 372.0 230.5 Z" fill="#B8BDC2" />
<path d="M 348.0 234.5 L 348.0 236.5 L 348.0 234.5 Z" fill="#B8BDC2" />
<path d="M 34.0 232.5 L 34.0 234.5 L 34.0 232.5 Z" fill="#B8BDC2" />
<path d="M 169.0 231.5 L 169.0 234.5 L 169.0 231.5 Z" fill="#B8BDC2" />
<path d="M 348.0 227.5 L 348.0 233.5 L 348.0 227.5 Z" fill="#B8BDC2" />
<path d="M 387.0 229.5 L 387.0 231.5 L 387.0 229.5 Z" fill="#B8BDC2" />
<path d="M 768.0 229.5 L 731.5 230.0 L 768.0 229.5 Z" fill="#B8BDC2" />
<path d="M 772.0 229.5 L 770.5 230.0 L 772.0 229.5 Z" fill="#B8BDC2" />
<path d="M 964.0 229.5 L 932.5 230.0 L 964.0 229.5 Z" fill="#B8BDC2" />
<path d="M 1045.0 228.5 L 1043.5 229.0 L 1045.0 228.5 Z" fill="#B8BDC2" />
<path d="M 1058.0 228.5 L 1056.5 229.0 L 1058.0 228.5 Z" fill="#B8BDC2" />
<path d="M 387.0 225.5 L 387.0 228.5 L 387.0 225.5 Z" fill="#B8BDC2" />
<path d="M 408.0 222.5 L 408.0 227.5 L 408.0 222.5 Z" fill="#B8BDC2" />
<path d="M 46.0 223.5 L 42.5 224.0 L 46.0 223.5 Z" fill="#B8BDC2" />
<path d="M 129.0 218.5 L 129.0 220.5 L 129.0 218.5 Z" fill="#B8BDC2" />
<path d="M 347.0 218.5 L 347.0 220.5 L 347.0 218.5 Z" fill="#B8BDC2" />
<path d="M 371.0 217.5 L 371.0 219.5 L 371.0 217.5 Z" fill="#B8BDC2" />
<path d="M 386.0 214.5 L 386.0 216.5 L 386.0 214.5 Z" fill="#B8BDC2" />
<path d="M 68.0 213.5 L 68.0 215.5 L 68.0 213.5 Z" fill="#B8BDC2" />
<path d="M 105.0 214.5 L 90.5 215.0 L 105.0 214.5 Z" fill="#B8BDC2" />
<path d="M 106.0 212.5 L 106.0 214.5 L 106.0 212.5 Z" fill="#B8BDC2" />
<path d="M 197.0 212.5 L 197.0 214.5 L 197.0 212.5 Z" fill="#B8BDC2" />
<path d="M 407.0 212.5 L 407.0 214.5 L 407.0 212.5 Z" fill="#B8BDC2" />
<path d="M 433.0 204.5 L 433.0 206.5 L 433.0 204.5 Z" fill="#B8BDC2" />
<path d="M 222.0 199.5 L 222.0 201.5 L 222.0 199.5 Z" fill="#B8BDC2" />
<path d="M 249.0 195.5 L 249.0 197.5 L 249.0 195.5 Z" fill="#B8BDC2" />
<path d="M 511.0 190.5 L 509.5 191.0 L 511.0 190.5 Z" fill="#B8BDC2" />
<path d="M 581.0 190.5 L 579.5 191.0 L 581.0 190.5 Z" fill="#B8BDC2" />
<path d="M 612.0 190.5 L 610.5 191.0 L 612.0 190.5 Z" fill="#B8BDC2" />
<path d="M 645.0 190.5 L 642.5 191.0 L 645.0 190.5 Z" fill="#B8BDC2" />
<path d="M 663.0 190.5 L 657.5 191.0 L 663.0 190.5 Z" fill="#B8BDC2" />
<path d="M 716.0 190.5 L 707.5 191.0 L 716.0 190.5 Z" fill="#B8BDC2" />
<path d="M 739.0 190.5 L 728.5 191.0 L 739.0 190.5 Z" fill="#B8BDC2" />
<path d="M 752.0 190.5 L 750.5 191.0 L 752.0 190.5 Z" fill="#B8BDC2" />
<path d="M 755.0 190.5 L 753.5 191.0 L 755.0 190.5 Z" fill="#B8BDC2" />
<path d="M 777.0 190.5 L 766.5 191.0 L 777.0 190.5 Z" fill="#B8BDC2" />
<path d="M 815.0 190.5 L 806.5 191.0 L 815.0 190.5 Z" fill="#B8BDC2" />
<path d="M 834.0 190.5 L 832.5 191.0 L 834.0 190.5 Z" fill="#B8BDC2" />
<path d="M 852.0 190.5 L 849.5 191.0 L 852.0 190.5 Z" fill="#B8BDC2" />
<path d="M 864.0 190.5 L 861.5 191.0 L 864.0 190.5 Z" fill="#B8BDC2" />
<path d="M 898.0 190.5 L 887.5 191.0 L 898.0 190.5 Z" fill="#B8BDC2" />
<path d="M 913.0 190.5 L 911.5 191.0 L 913.0 190.5 Z" fill="#B8BDC2" />
<path d="M 934.0 190.5 L 931.5 191.0 L 934.0 190.5 Z" fill="#B8BDC2" />
<path d="M 944.0 190.5 L 942.5 191.0 L 944.0 190.5 Z" fill="#B8BDC2" />
<path d="M 954.0 173.5 L 954.0 191.5 L 954.0 173.5 Z" fill="#B8BDC2" />
<path d="M 969.0 190.5 L 966.5 191.0 L 969.0 190.5 Z" fill="#B8BDC2" />
<path d="M 988.0 190.5 L 979.5 191.0 L 988.0 190.5 Z" fill="#B8BDC2" />
<path d="M 1031.0 190.5 L 1019.5 191.0 L 1031.0 190.5 Z" fill="#B8BDC2" />
<path d="M 1041.0 190.5 L 1038.5 191.0 L 1041.0 190.5 Z" fill="#B8BDC2" />
<path d="M 1058.0 190.5 L 1056.5 191.0 L 1058.0 190.5 Z" fill="#B8BDC2" />
<path d="M 1076.0 173.5 L 1076.0 191.5 L 1076.0 173.5 Z" fill="#B8BDC2" />
<path d="M 1091.0 190.5 L 1088.5 191.0 L 1091.0 190.5 Z" fill="#B8BDC2" />
<path d="M 861.0 185.5 L 861.0 190.5 L 861.0 185.5 Z" fill="#B8BDC2" />
<path d="M 887.0 173.5 L 887.0 190.5 L 887.0 173.5 Z" fill="#B8BDC2" />
<path d="M 1019.0 188.5 L 1019.0 190.5 L 1019.0 188.5 Z" fill="#B8BDC2" />
<path d="M 661.0 187.5 L 659.5 188.0 L 661.0 187.5 Z" fill="#B8BDC2" />
<path d="M 753.0 187.5 L 751.5 188.0 L 753.0 187.5 Z" fill="#B8BDC2" />
<path d="M 720.0 185.5 L 720.0 187.5 L 720.0 185.5 Z" fill="#B8BDC2" />
<path d="M 770.0 184.5 L 770.0 187.5 L 770.0 184.5 Z" fill="#B8BDC2" />
<path d="M 595.0 184.5 L 595.0 186.5 L 595.0 184.5 Z" fill="#B8BDC2" />
<path d="M 1088.0 184.5 L 1088.0 186.5 L 1088.0 184.5 Z" fill="#B8BDC2" />
<path d="M 710.0 183.5 L 710.0 185.5 L 710.0 183.5 Z" fill="#B8BDC2" />
<path d="M 622.0 180.5 L 622.0 184.5 L 622.0 180.5 Z" fill="#B8BDC2" />
<path d="M 735.0 183.5 L 731.5 184.0 L 735.0 183.5 Z" fill="#B8BDC2" />
<path d="M 775.0 183.5 L 771.5 184.0 L 775.0 183.5 Z" fill="#B8BDC2" />
<path d="M 1079.0 182.5 L 1079.0 184.5 L 1079.0 182.5 Z" fill="#B8BDC2" />
<path d="M 715.0 182.5 L 711.5 183.0 L 715.0 182.5 Z" fill="#B8BDC2" />
<path d="M 739.0 181.5 L 739.0 183.5 L 739.0 181.5 Z" fill="#B8BDC2" />
<path d="M 813.0 182.5 L 809.5 183.0 L 813.0 182.5 Z" fill="#B8BDC2" />
<path d="M 923.0 180.5 L 923.0 183.5 L 923.0 180.5 Z" fill="#B8BDC2" />
<path d="M 1053.0 181.5 L 1053.0 183.5 L 1053.0 181.5 Z" fill="#B8BDC2" />
<path d="M 905.0 180.5 L 905.0 182.5 L 905.0 180.5 Z" fill="#B8BDC2" />
<path d="M 604.0 179.5 L 604.0 181.5 L 604.0 179.5 Z" fill="#B8BDC2" />
<path d="M 581.0 178.5 L 581.0 180.5 L 581.0 178.5 Z" fill="#B8BDC2" />
<path d="M 812.0 179.5 L 810.5 180.0 L 812.0 179.5 Z" fill="#B8BDC2" />
<path d="M 861.0 174.5 L 861.0 179.5 L 861.0 174.5 Z" fill="#B8BDC2" />
<path d="M 517.0 177.5 L 515.5 178.0 L 517.0 177.5 Z" fill="#B8BDC2" />
<path d="M 810.0 173.5 L 810.0 178.5 L 810.0 173.5 Z" fill="#B8BDC2" />
<path d="M 127.0 160.5 L 127.0 162.5 L 127.0 160.5 Z" fill="#B8BDC2" />
<path d="M 247.0 146.5 L 247.0 148.5 L 247.0 146.5 Z" fill="#B8BDC2" />
<path d="M 408.0 146.5 L 406.5 147.0 L 408.0 146.5 Z" fill="#B8BDC2" />
<path d="M 180.0 138.5 L 178.5 139.0 L 180.0 138.5 Z" fill="#B8BDC2" />
<path d="M 222.0 123.5 L 220.5 124.0 L 222.0 123.5 Z" fill="#B8BDC2" />
<path d="M 255.0 123.5 L 253.5 124.0 L 255.0 123.5 Z" fill="#B8BDC2" />
<path d="M 248.0 122.5 L 246.5 123.0 L 248.0 122.5 Z" fill="#B8BDC2" />
<path d="M 75.0 115.5 L 75.0 117.5 L 75.0 115.5 Z" fill="#B8BDC2" />
<path d="M 399.0 115.5 L 399.0 117.5 L 399.0 115.5 Z" fill="#B8BDC2" />
<path d="M 360.0 114.5 L 358.5 115.0 L 360.0 114.5 Z" fill="#B8BDC2" />
<path d="M 209.0 101.5 L 207.5 102.0 L 209.0 101.5 Z" fill="#B8BDC2" />
<path d="M 106.0 97.5 L 106.0 99.5 L 106.0 97.5 Z" fill="#B8BDC2" />
<path d="M 389.0 96.5 L 389.0 99.5 L 389.0 96.5 Z" fill="#B8BDC2" />
<path d="M 117.0 83.5 L 115.5 84.0 L 117.0 83.5 Z" fill="#B8BDC2" />
<path d="M 221.0 83.5 L 219.5 84.0 L 221.0 83.5 Z" fill="#B8BDC2" />
<path d="M 240.0 82.5 L 233.5 83.0 L 240.0 82.5 Z" fill="#B8BDC2" />
<path d="M 111.0 76.5 L 111.0 79.5 L 111.0 76.5 Z" fill="#B8BDC2" />
<path d="M 359.0 71.5 L 355.5 72.0 L 359.0 71.5 Z" fill="#B8BDC2" />
<path d="M 205.0 63.5 L 203.5 64.0 L 205.0 63.5 Z" fill="#B8BDC2" />
<path d="M 211.0 62.5 L 209.5 63.0 L 211.0 62.5 Z" fill="#B8BDC2" />
<path d="M 255.0 61.5 L 252.5 62.0 L 255.0 61.5 Z" fill="#B8BDC2" />
<path d="M 327.0 60.5 L 327.0 62.5 L 327.0 60.5 Z" fill="#B8BDC2" />
<path d="M 232.0 60.5 L 230.5 61.0 L 232.0 60.5 Z" fill="#B8BDC2" />
<path d="M 240.0 60.5 L 238.5 61.0 L 240.0 60.5 Z" fill="#B8BDC2" />
<path d="M 239.0 45.5 L 235.5 46.0 L 239.0 45.5 Z" fill="#B8BDC2" />

  </g>

  <!-- Clean text -->
  <g class="brand" transform="translate(700,320)">
    <text class="word">Pi LABS</text>
    <text class="tag" y="105">Commons   Research   Foundation</text>
  </g>
</svg>
